<svg id="Capa_1" enable-background="new 0 0 512 512" height="512" viewBox="0 0 512 512" width="512" xmlns="http://www.w3.org/2000/svg"><g><path d="m496 255h-480c-8.284 0-15 6.716-15 15v32c0 8.284 6.716 15 15 15h480c8.284 0 15-6.716 15-15v-32c0-8.284-6.716-15-15-15z"/><path d="m191.771 225h128.458c-4.825-31.11-31.789-55-64.229-55s-59.405 23.89-64.229 55z"/><path d="m118.448 225h43.077c3.393-32.276 23.015-59.786 50.532-74.205-9.954-10.714-16.057-25.052-16.057-40.795 0-33.084 26.916-60 60-60s60 26.916 60 60c0 15.743-6.103 30.081-16.057 40.795 27.517 14.419 47.139 41.929 50.532 74.205h43.077l10.176-122.11c2.2-26.4-6.826-52.722-24.763-72.215-17.938-19.494-43.418-30.675-69.909-30.675h-106.112c-26.491 0-51.972 11.181-69.909 30.675-17.937 19.493-26.963 45.814-24.763 72.215z"/><circle cx="256" cy="110" r="30"/><path d="m31 497c0 8.284 6.716 15 15 15h420c8.284 0 15-6.716 15-15v-150h-450zm75-120h300c8.284 0 15 6.716 15 15s-6.716 15-15 15h-300c-8.284 0-15-6.716-15-15s6.716-15 15-15zm0 60h300c8.284 0 15 6.716 15 15s-6.716 15-15 15h-300c-8.284 0-15-6.716-15-15s6.716-15 15-15z"/></g></svg>