<svg height="512pt" viewBox="0 0 512 512" width="512pt" xmlns="http://www.w3.org/2000/svg"><path d="m503.464844 512h-494.929688c-4.710937 0-8.535156-3.824219-8.535156-8.535156v-494.929688c0-4.710937 3.824219-8.535156 8.535156-8.535156h494.929688c4.710937 0 8.535156 3.824219 8.535156 8.535156v494.929688c0 4.710937-3.824219 8.535156-8.535156 8.535156zm-486.398438-17.066406h477.867188v-477.867188h-477.867188zm0 0"/><path d="m119.464844 153.601562c-23.523438 0-42.664063-19.140624-42.664063-42.667968s19.140625-42.667969 42.664063-42.667969c23.527344 0 42.667968 19.140625 42.667968 42.667969s-19.140624 42.667968-42.667968 42.667968zm0-68.269531c-14.113282 0-25.597656 11.488281-25.597656 25.601563 0 14.113281 11.484374 25.601562 25.597656 25.601562 14.117187 0 25.601562-11.488281 25.601562-25.601562 0-14.113282-11.484375-25.601563-25.601562-25.601563zm0 0"/><path d="m119.464844 298.667969c-23.523438 0-42.664063-19.140625-42.664063-42.667969s19.140625-42.667969 42.664063-42.667969c23.527344 0 42.667968 19.140625 42.667968 42.667969s-19.140624 42.667969-42.667968 42.667969zm0-68.269531c-14.113282 0-25.597656 11.488281-25.597656 25.601562s11.484374 25.601562 25.597656 25.601562c14.117187 0 25.601562-11.488281 25.601562-25.601562s-11.484375-25.601562-25.601562-25.601562zm0 0"/><path d="m119.464844 443.734375c-23.523438 0-42.664063-19.140625-42.664063-42.667969s19.140625-42.667968 42.664063-42.667968c23.527344 0 42.667968 19.140624 42.667968 42.667968s-19.140624 42.667969-42.667968 42.667969zm0-68.269531c-14.113282 0-25.597656 11.488281-25.597656 25.601562 0 14.113282 11.484374 25.601563 25.597656 25.601563 14.117187 0 25.601562-11.488281 25.601562-25.601563 0-14.113281-11.484375-25.601562-25.601562-25.601562zm0 0"/><path d="m426.667969 136.535156h-196.269531c-4.707032 0-8.53125-3.824218-8.53125-8.535156v-34.132812c0-4.710938 3.824218-8.535157 8.53125-8.535157h196.269531c4.710937 0 8.53125 3.824219 8.53125 8.535157v34.132812c0 4.710938-3.820313 8.535156-8.53125 8.535156zm-187.734375-17.070312h179.199218v-17.066406h-179.199218zm0 0"/><path d="m426.667969 281.601562h-196.269531c-4.707032 0-8.53125-3.824218-8.53125-8.535156v-34.132812c0-4.710938 3.824218-8.535156 8.53125-8.535156h196.269531c4.710937 0 8.53125 3.824218 8.53125 8.535156v34.132812c0 4.710938-3.820313 8.535156-8.53125 8.535156zm-187.734375-17.066406h179.199218v-17.070312h-179.199218zm0 0"/><path d="m426.667969 426.667969h-196.269531c-4.707032 0-8.53125-3.824219-8.53125-8.535157v-34.132812c0-4.710938 3.824218-8.535156 8.53125-8.535156h196.269531c4.710937 0 8.53125 3.824218 8.53125 8.535156v34.132812c0 4.710938-3.820313 8.535157-8.53125 8.535157zm-187.734375-17.066407h179.199218v-17.066406h-179.199218zm0 0"/></svg>